<?xml version="1.0" encoding="UTF-8" standalone="no"?>
<svg
   xmlns:dc="http://purl.org/dc/elements/1.1/"
   xmlns:cc="http://creativecommons.org/ns#"
   xmlns:rdf="http://www.w3.org/1999/02/22-rdf-syntax-ns#"
   xmlns:svg="http://www.w3.org/2000/svg"
   xmlns="http://www.w3.org/2000/svg"
   xmlns:xlink="http://www.w3.org/1999/xlink"
   xmlns:sodipodi="http://sodipodi.sourceforge.net/DTD/sodipodi-0.dtd"
   xmlns:inkscape="http://www.inkscape.org/namespaces/inkscape"
   width="2739.9485"
   height="699.64313"
   viewBox="0 0 2739.9485 699.64313"
   class="logo"
   version="1.1"
   id="svg34"
   sodipodi:docname="logo.svg"
   inkscape:version="0.92.1 15371">
  <metadata
     id="metadata40">
    <rdf:RDF>
      <cc:Work
         rdf:about="">
        <dc:format>image/svg+xml</dc:format>
        <dc:type
           rdf:resource="http://purl.org/dc/dcmitype/StillImage" />
        <dc:title></dc:title>
      </cc:Work>
    </rdf:RDF>
  </metadata>
  <defs
     id="defs38">
    <linearGradient
       inkscape:collect="always"
       xlink:href="#linearGradient4671"
       id="linearGradient1475"
       gradientUnits="userSpaceOnUse"
       gradientTransform="matrix(0.60004373,0,0,0.6058368,-252.65252,238.51022)"
       x1="150.96111"
       y1="192.35176"
       x2="112.03144"
       y2="137.27299" />
    <linearGradient
       id="linearGradient4671">
      <stop
         style="stop-color:#ffd43b;stop-opacity:1;"
         offset="0"
         id="stop4673" />
      <stop
         style="stop-color:#ffe873;stop-opacity:1"
         offset="1"
         id="stop4675" />
    </linearGradient>
    <linearGradient
       inkscape:collect="always"
       xlink:href="#linearGradient4689"
       id="linearGradient1478"
       gradientUnits="userSpaceOnUse"
       gradientTransform="matrix(0.60004373,0,0,0.6058368,-252.65252,238.51022)"
       x1="26.648937"
       y1="20.603781"
       x2="135.66525"
       y2="114.39767" />
    <linearGradient
       id="linearGradient4689">
      <stop
         style="stop-color:#5a9fd4;stop-opacity:1;"
         offset="0"
         id="stop4691" />
      <stop
         style="stop-color:#306998;stop-opacity:1;"
         offset="1"
         id="stop4693" />
    </linearGradient>
  </defs>
  <sodipodi:namedview
     pagecolor="#ffffff"
     bordercolor="#666666"
     borderopacity="1"
     objecttolerance="10"
     gridtolerance="10"
     guidetolerance="10"
     inkscape:pageopacity="0"
     inkscape:pageshadow="2"
     inkscape:window-width="1920"
     inkscape:window-height="1056"
     id="namedview36"
     showgrid="false"
     inkscape:zoom="0.295"
     inkscape:cx="1780.2741"
     inkscape:cy="317.80181"
     inkscape:window-x="1080"
     inkscape:window-y="720"
     inkscape:window-maximized="1"
     inkscape:current-layer="svg34"
     fit-margin-top="0"
     fit-margin-left="0"
     fit-margin-right="0"
     fit-margin-bottom="0" />
  <rect
     style="opacity:1;fill:#171e2f;fill-opacity:0.94117647;stroke:none;stroke-width:0.71200532;stroke-opacity:1"
     id="rect4637"
     width="2739.2366"
     height="698.93115"
     x="0.35600266"
     y="0.35600266"
     inkscape:export-xdpi="31.147308"
     inkscape:export-ydpi="31.147308" />
  <text
     xml:space="preserve"
     style="font-style:normal;font-weight:normal;font-size:40px;line-height:1.25;font-family:sans-serif;letter-spacing:0px;word-spacing:0px;fill:#000000;fill-opacity:1;stroke:none"
     x="811.49969"
     y="1496.4318"
     id="text4703"><tspan
       sodipodi:role="line"
       id="tspan4701"
       x="811.49969"
       y="1531.8224"></tspan></text>
  <g
     id="g4813"
     transform="translate(1380.984,-903.31342)"
     inkscape:export-xdpi="31.147308"
     inkscape:export-ydpi="31.147308">
    <text
       id="text4645"
       y="1402.3552"
       x="-883.05078"
       style="font-style:normal;font-weight:normal;font-size:40px;line-height:1.25;font-family:sans-serif;letter-spacing:0px;word-spacing:0px;fill:#ffffff;fill-opacity:1;stroke:none"
       xml:space="preserve"><tspan
         style="font-style:normal;font-variant:normal;font-weight:normal;font-stretch:normal;font-size:85.33333588px;font-family:sans-serif;-inkscape-font-specification:sans-serif;fill:#ffffff"
         y="1402.3552"
         x="-883.05078"
         id="tspan4643"
         sodipodi:role="line">GraphQL</tspan></text>
    <text
       id="text4645-9"
       y="1402.3552"
       x="-171.87679"
       style="font-style:normal;font-weight:normal;font-size:40px;line-height:1.25;font-family:sans-serif;letter-spacing:0px;word-spacing:0px;fill:#ffffff;fill-opacity:1;stroke:none"
       xml:space="preserve"><tspan
         style="font-style:normal;font-variant:normal;font-weight:normal;font-stretch:normal;font-size:85.33333588px;font-family:sans-serif;-inkscape-font-specification:sans-serif;fill:#ffffff"
         y="1402.3552"
         x="-171.87679"
         id="tspan4643-1"
         sodipodi:role="line">Python</tspan></text>
    <text
       id="text4645-9-7"
       y="1402.3552"
       x="439.61475"
       style="font-style:normal;font-weight:normal;font-size:40px;line-height:1.25;font-family:sans-serif;letter-spacing:0px;word-spacing:0px;fill:#ffffff;fill-opacity:1;stroke:none"
       xml:space="preserve"><tspan
         style="font-style:normal;font-variant:normal;font-weight:normal;font-stretch:normal;font-size:85.33333588px;font-family:sans-serif;-inkscape-font-specification:sans-serif;fill:#ffffff"
         y="1402.3552"
         x="439.61475"
         id="tspan4643-1-7"
         sodipodi:role="line">Graphene</tspan></text>
    <g
       id="g4754">
      <g
         id="g4641"
         transform="matrix(1.6683127,0,0,1.6683127,261.00178,667.4304)">
        <path
           inkscape:connector-curvature="0"
           id="path1948"
           d="m -178.08195,250.99373 c -4.88923,0.0227 -9.55834,0.4397 -13.66667,1.16666 -12.10263,2.13814 -14.3,6.61345 -14.3,14.86667 v 10.9 h 28.6 v 3.63333 h -28.6 -10.73333 c -8.31196,0 -15.59015,4.99597 -17.86667,14.5 -2.62594,10.89383 -2.74242,17.69176 0,29.06667 2.03299,8.46704 6.88805,14.5 15.2,14.5 h 9.83333 v -13.06667 c 0,-9.43989 8.16762,-17.76666 17.86667,-17.76666 h 28.56667 c 7.95194,0 14.3,-6.54738 14.3,-14.53334 v -27.23333 c 0,-7.75076 -6.53865,-13.5731 -14.3,-14.86667 -4.91306,-0.81784 -10.01077,-1.18938 -14.9,-1.16666 z m -15.46667,8.76666 c 2.95418,0 5.36667,2.45189 5.36667,5.46667 -1e-5,3.00409 -2.41249,5.43333 -5.36667,5.43333 -2.96478,0 -5.36667,-2.42924 -5.36667,-5.43333 0,-3.01478 2.40189,-5.46667 5.36667,-5.46667 z"
           style="fill:url(#linearGradient1478);fill-opacity:1;stroke-width:1.06666672" />
        <path
           inkscape:connector-curvature="0"
           id="path1950"
           d="m -145.31529,281.56039 v 12.7 c 0,9.84614 -8.34762,18.13334 -17.86666,18.13334 h -28.56667 c -7.82489,0 -14.3,6.69705 -14.3,14.53333 v 27.23334 c 0,7.75076 6.73983,12.30967 14.3,14.53333 9.05315,2.66199 17.73465,3.14307 28.56667,0 7.20016,-2.08468 14.3,-6.28012 14.3,-14.53333 v -10.90001 h -28.56667 v -3.63333 h 28.56667 14.3 c 8.31196,0 11.40933,-5.79777 14.29999,-14.5 2.98595,-8.95881 2.8589,-17.57416 0,-29.06667 -2.05417,-8.2746 -5.97746,-14.5 -14.29999,-14.5 z m -16.06666,68.96667 c 2.96477,0 5.36666,2.42925 5.36666,5.43334 0,3.01477 -2.40189,5.46666 -5.36666,5.46666 -2.95419,0 -5.36667,-2.45189 -5.36667,-5.46666 0,-3.00409 2.41248,-5.43334 5.36667,-5.43334 z"
           style="fill:url(#linearGradient1475);fill-opacity:1;stroke-width:1.06666672" />
      </g>
      <g
         id="g4594"
         transform="matrix(0.51072523,0,0,0.51072523,-502.07997,1179.7754)">
        <path
           id="path2-3"
           d="m -541.62786,115.17052 -14.376,-8.3 160.15,-277.38 14.376,8.3 z"
           style="fill:#e10098"
           inkscape:connector-curvature="0" />
        <path
           id="path4"
           d="m -559.29586,84.710517 h 320.3 v 16.600003 h -320.3 z"
           style="fill:#e10098"
           inkscape:connector-curvature="0" />
        <path
           id="path6"
           d="m -392.74786,186.53652 -160.21,-92.500003 8.3,-14.376 160.21,92.500003 z m 139.174,-241.079003 -160.21,-92.499997 8.3,-14.376 160.21,92.499997 z"
           style="fill:#e10098"
           inkscape:connector-curvature="0" />
        <path
           id="path8"
           d="m -544.61386,-54.606483 -8.3,-14.375 160.21,-92.499997 8.3,14.376 z"
           style="fill:#e10098"
           inkscape:connector-curvature="0" />
        <path
           id="path10"
           d="m -256.52786,115.17352 -160.15,-277.38 14.376,-8.3 160.15,277.38 z m -290.068,-195.163003 h 16.6 V 105.01052 h -16.6 z m 278.4,0 h 16.6 V 105.01052 h -16.6 z"
           style="fill:#e10098"
           inkscape:connector-curvature="0" />
        <path
           id="path12"
           d="m -395.57386,179.51052 -7.25,-12.558 139.34,-80.450003 7.25,12.557 z"
           style="fill:#e10098"
           inkscape:connector-curvature="0" />
        <path
           id="path14"
           d="m -229.59586,110.41052 c -9.6,16.7 -31,22.4 -47.7,12.8 -16.7,-9.6 -22.4,-31.000003 -12.8,-47.700003 9.6,-16.7 31,-22.4 47.7,-12.8 16.8,9.7 22.5,31 12.8,47.700003 m -278.6,-160.900003 c -9.6,16.7 -31,22.4 -47.7,12.8 -16.7,-9.6 -22.4,-31 -12.8,-47.7 9.6,-16.699997 31,-22.399997 47.7,-12.8 16.7,9.7 22.4,31 12.8,47.7 m -60.4,160.900003 c -9.6,-16.700003 -3.9,-38.000003 12.8,-47.700003 16.7,-9.6 38,-3.9 47.7,12.8 9.6,16.7 3.9,38.000003 -12.8,47.700003 -16.8,9.6 -38.1,3.9 -47.7,-12.8 m 278.6,-160.900003 c -9.6,-16.7 -3.9,-38 12.8,-47.7 16.7,-9.599997 38,-3.899997 47.7,12.8 9.6,16.7 3.9,38 -12.8,47.7 -16.7,9.6 -38.1,3.9 -47.7,-12.8 m -109.1,258.800003 c -19.3,0 -34.9,-15.6 -34.9,-34.9 0,-19.3 15.6,-34.9 34.9,-34.9 19.3,0 34.9,15.6 34.9,34.9 0,19.2 -15.6,34.9 -34.9,34.9 m 0,-321.8 c -19.3,0 -34.9,-15.6 -34.9,-34.9 0,-19.3 15.6,-34.9 34.9,-34.9 19.3,0 34.9,15.6 34.9,34.9 0,19.3 -15.6,34.9 -34.9,34.9"
           style="fill:#e10098"
           inkscape:connector-curvature="0" />
      </g>
      <g
         id="g4611"
         transform="matrix(2.0887074,0,0,2.0887074,531.90055,1080.943)">
        <path
           class="logo-path"
           d="M 49.17,10.915 15.415,30.29 15.473,69.542 50.106,89.624 83.451,70.674 83.428,30.884 49.243,50.122"
           id="path2"
           style="fill:none;fill-opacity:1;fill-rule:evenodd;stroke:#f46d4c;stroke-width:4.98699999;stroke-opacity:1"
           inkscape:connector-curvature="0" />
        <g
           transform="translate(41.5,3)"
           id="g6"
           style="fill:#f46d4c;fill-opacity:1;fill-rule:evenodd;stroke:#f46d4c;stroke-opacity:1">
          <path
             style="fill:#f46d4c;fill-opacity:1;stroke:#f46d4c;stroke-opacity:1"
             d="M 15.868,7.9699998 A 7.934,7.9699998 0 0 1 7.934,15.94 7.934,7.9699998 0 0 1 0,7.9699998 7.934,7.9699998 0 0 1 7.934,0 7.934,7.9699998 0 0 1 15.868,7.9699998 Z"
             id="ellipse4"
             inkscape:connector-curvature="0" />
        </g>
        <g
           transform="translate(8,22.482)"
           id="g10"
           style="fill:#f46d4c;fill-opacity:1;fill-rule:evenodd;stroke:#f46d4c;stroke-opacity:1">
          <path
             style="fill:#f46d4c;fill-opacity:1;stroke:#f46d4c;stroke-opacity:1"
             d="M 15.868,7.9699998 A 7.934,7.9699998 0 0 1 7.934,15.94 7.934,7.9699998 0 0 1 0,7.9699998 7.934,7.9699998 0 0 1 7.934,0 7.934,7.9699998 0 0 1 15.868,7.9699998 Z"
             id="ellipse8"
             inkscape:connector-curvature="0" />
        </g>
        <g
           transform="translate(8,62.33)"
           id="g14"
           style="fill:#f46d4c;fill-opacity:1;fill-rule:evenodd;stroke:#f46d4c;stroke-opacity:1">
          <path
             style="fill:#f46d4c;fill-opacity:1;stroke:#f46d4c;stroke-opacity:1"
             d="M 15.868,7.9699998 A 7.934,7.9699998 0 0 1 7.934,15.94 7.934,7.9699998 0 0 1 0,7.9699998 7.934,7.9699998 0 0 1 7.934,0 7.934,7.9699998 0 0 1 15.868,7.9699998 Z"
             id="ellipse12"
             inkscape:connector-curvature="0" />
        </g>
        <g
           transform="translate(42.382,81.813)"
           id="g18"
           style="fill:#f46d4c;fill-opacity:1;fill-rule:evenodd;stroke:#f46d4c;stroke-opacity:1">
          <path
             style="fill:#f46d4c;fill-opacity:1;stroke:#f46d4c;stroke-opacity:1"
             d="M 15.868,7.9699998 A 7.934,7.9699998 0 0 1 7.934,15.94 7.934,7.9699998 0 0 1 0,7.9699998 7.934,7.9699998 0 0 1 7.934,0 7.934,7.9699998 0 0 1 15.868,7.9699998 Z"
             id="ellipse16"
             inkscape:connector-curvature="0" />
        </g>
        <g
           transform="translate(75.882,62.33)"
           id="g22"
           style="fill:#f46d4c;fill-opacity:1;fill-rule:evenodd;stroke:#f46d4c;stroke-opacity:1">
          <path
             style="fill:#f46d4c;fill-opacity:1;stroke:#f46d4c;stroke-opacity:1"
             d="M 15.868,7.9699998 A 7.934,7.9699998 0 0 1 7.934,15.94 7.934,7.9699998 0 0 1 0,7.9699998 7.934,7.9699998 0 0 1 7.934,0 7.934,7.9699998 0 0 1 15.868,7.9699998 Z"
             id="ellipse20"
             inkscape:connector-curvature="0" />
        </g>
        <g
           transform="translate(75.882,22.482)"
           id="g26"
           style="fill:#f46d4c;fill-opacity:1;fill-rule:evenodd;stroke:#f46d4c;stroke-opacity:1">
          <path
             style="fill:#f46d4c;fill-opacity:1;stroke:#f46d4c;stroke-opacity:1"
             d="M 15.868,7.9699998 A 7.934,7.9699998 0 0 1 7.934,15.94 7.934,7.9699998 0 0 1 0,7.9699998 7.934,7.9699998 0 0 1 7.934,0 7.934,7.9699998 0 0 1 15.868,7.9699998 Z"
             id="ellipse24"
             inkscape:connector-curvature="0" />
        </g>
        <g
           transform="translate(42.382,41.964)"
           id="g30"
           style="fill:#f46d4c;fill-opacity:1;fill-rule:evenodd;stroke:#f46d4c;stroke-opacity:1">
          <path
             style="fill:#f46d4c;fill-opacity:1;stroke:#f46d4c;stroke-opacity:1"
             d="M 15.868,7.9699998 A 7.934,7.9699998 0 0 1 7.934,15.94 7.934,7.9699998 0 0 1 0,7.9699998 7.934,7.9699998 0 0 1 7.934,0 7.934,7.9699998 0 0 1 15.868,7.9699998 Z"
             id="ellipse28"
             inkscape:connector-curvature="0" />
        </g>
      </g>
      <text
         xml:space="preserve"
         style="font-style:normal;font-weight:normal;font-size:40px;line-height:1.25;font-family:sans-serif;letter-spacing:0px;word-spacing:0px;fill:#ffffff;fill-opacity:1;stroke:none"
         x="-450.85004"
         y="1246.3523"
         id="text4645-1"><tspan
           sodipodi:role="line"
           id="tspan4643-15"
           x="-450.85004"
           y="1246.3523"
           style="font-style:normal;font-variant:normal;font-weight:normal;font-stretch:normal;font-size:192px;font-family:sans-serif;-inkscape-font-specification:sans-serif;fill:#ffffff">+</tspan></text>
      <text
         xml:space="preserve"
         style="font-style:normal;font-weight:normal;font-size:40px;line-height:1.25;font-family:sans-serif;letter-spacing:0px;word-spacing:0px;fill:#ffffff;fill-opacity:1;stroke:none"
         x="220.14154"
         y="1246.2585"
         id="text4645-1-9"><tspan
           sodipodi:role="line"
           id="tspan4643-15-7"
           x="220.14154"
           y="1246.2585"
           style="font-style:normal;font-variant:normal;font-weight:normal;font-stretch:normal;font-size:192px;font-family:sans-serif;-inkscape-font-specification:sans-serif;fill:#ffffff">=</tspan></text>
    </g>
  </g>
</svg>
